<svg xmlns="http://www.w3.org/2000/svg" xml:space="preserve" width="2048" height="2048" style="shape-rendering:geometricPrecision;text-rendering:geometricPrecision;image-rendering:optimizeQuality;fill-rule:evenodd;clip-rule:evenodd"><defs><clipPath id="id0"><path d="M1024-.001c565.541 0 1024 458.46 1024 1024s-458.461 1024-1024 1024c-565.541 0-1024-458.461-1024-1024 0-565.541 458.461-1024 1024-1024z"/></clipPath><style>.fil1{fill:#0288d1}.fil10{fill:#171717}.fil4{fill:#333232}.fil5{fill:#454c54}.fil0{fill:#4fc3f7}.fil11{fill:#515151}</style></defs><g id="Layer_x0020_1"><path class="fil0" d="M1024-.001c565.541 0 1024 458.46 1024 1024s-458.461 1024-1024 1024c-565.541 0-1024-458.461-1024-1024 0-565.541 458.461-1024 1024-1024z"/><g style="clip-path:url(#id0)"><g id="_385668112"><path id="_2840886161" class="fil1" d="M1260.96 739.765 2396.84 1875.65l1.38 1.84 1.2 1.97 1.01 2.08.8 2.19.59 2.29.37 2.36.12 2.43v436.25l-.12 2.43-.37 2.36-.59 2.29-.81 2.19-1.01 2.08-1.2 1.97-1.37 1.84-1.55 1.7-1.7 1.54-1.84 1.38-1.97 1.2-2.08 1.01-2.19.81-2.29.59-2.36.36-2.43.13h-367.39L875.163 1215.06h367.387l2.43-.13 2.36-.36 2.28-.59 2.2-.81 2.08-1.01 1.97-1.2 1.84-1.38 1.7-1.54 1.54-1.7 1.38-1.84 1.2-1.97 1.01-2.09.81-2.19.59-2.28.36-2.36.13-2.43V754.928l-.13-2.431-.36-2.363-.59-2.283-.81-2.191-1.01-2.086-1.19-1.969z"/><path id="_284088736" class="fil1" d="M1579.01 729.748 2714.89 1865.63l1.26 1.68 1.09 1.8.92 1.9.74 2 .54 2.08.33 2.16.11 2.22v560.82l-.11 2.22-.33 2.16-.54 2.08-.74 2-.92 1.91-1.09 1.79-1.26 1.68-1.41 1.55-1.55 1.41-1.68 1.26-1.8 1.09-1.9.93-2 .73-2.08.54-2.16.33-2.22.12h-235.37l-2.22-.12-2.16-.33-2.08-.54-2-.73-1.91-.92-1.79-1.1-1.68-1.26-1.55-1.41L1311.45 1319.8l1.54 1.41 1.68 1.26 1.8 1.09 1.9.92 2 .74 2.09.54 2.16.33 2.22.11h235.37l2.22-.11 2.15-.33 2.09-.54 2-.74 1.9-.92 1.8-1.09 1.68-1.26 1.55-1.41 1.41-1.55 1.26-1.68 1.09-1.79.92-1.91.74-2 .53-2.08.34-2.16.11-2.22V743.59l-.11-2.221-.34-2.157-.53-2.084-.74-2-.92-1.904-1.09-1.797z"/><path id="_284089552" class="fil1" d="M855.266 1215.06 1991.15 2350.94h-367.39l-2.43-.13-2.36-.36-2.29-.59-2.19-.81-2.08-1-1.97-1.2-1.84-1.38L472.718 1209.59l1.839 1.37 1.97 1.2 2.086 1.01 2.191.81 2.283.59 2.363.36 2.431.13z"/><path id="_284089576" class="fil1" d="M875.163 1215.06 2011.04 2350.94l31.96 87.66L907.123 1302.72z"/><path id="_284089672" class="fil1" d="M930.986 1316.95 2066.87 2452.84h-131.55L799.443 1316.95z"/><path id="_284089600" class="fil1" d="M930.986 1302.72 2066.87 2438.6v14.24L930.986 1316.95z"/><path id="_385668160" class="fil1" d="M1326.84 721.797h235.371c11.987 0 21.793 9.807 21.793 21.793v560.82c0 11.985-9.807 21.793-21.793 21.793H1326.84c-11.985 0-21.793-9.807-21.793-21.793V743.59c0-11.988 9.807-21.793 21.793-21.793zm-60.407 33.131v436.248c0 13.123-10.757 23.88-23.881 23.88H875.167l31.96 87.664h23.862v14.234H799.446v-14.234h23.866l31.958-87.663H487.884c-13.124 0-23.88-10.747-23.88-23.88V754.927c0-13.135 10.745-23.88 23.88-23.88h754.667c13.135 0 23.88 10.757 23.88 23.88z"/></g></g><path d="M1024-.001c565.541 0 1024 458.46 1024 1024s-458.461 1024-1024 1024c-565.541 0-1024-458.461-1024-1024 0-565.541 458.461-1024 1024-1024z" style="fill:none"/><path style="fill:#1f1c1c" d="M858.866 1205.18h12.697l37.15 101.9h-86.996z"/><path class="fil4" d="M799.443 1302.72h131.543v14.235H799.443zM487.881 731.047h754.667c13.135 0 23.882 10.758 23.882 23.88v436.249c0 13.123-10.758 23.88-23.882 23.88H487.881c-13.124 0-23.88-10.745-23.88-23.88V754.928c0-13.135 10.745-23.881 23.88-23.881z"/><circle class="fil5" cx="825.562" cy="1183.15" r="11.542"/><circle class="fil0" cx="825.563" cy="1183.15" r="8.402"/><circle class="fil5" cx="865.214" cy="1183.15" r="11.542"/><circle cx="865.214" cy="1183.15" r="8.402" style="fill:#00c853"/><circle cx="904.865" cy="1183.15" r="11.542" style="fill:#353e45"/><path d="M511.722 754.928h706.984c12.305 0 22.373 9.096 22.373 20.19v359.055c0 11.094-10.079 20.19-22.373 20.19H511.722c-12.293 0-22.371-9.085-22.371-20.19V775.118c0-11.105 10.066-20.19 22.371-20.19z" style="fill:#97e1fc"/><path d="M1326.84 721.797h235.371c11.987 0 21.793 9.807 21.793 21.793v560.82c0 11.985-9.807 21.793-21.793 21.793H1326.84c-11.985 0-21.793-9.807-21.793-21.793V743.59c0-11.988 9.807-21.793 21.793-21.793z" style="fill:#3e3e3e"/><path class="fil10" d="M1335.32 734.043h218.398c11.121 0 20.22 9.102 20.22 20.222v462.264c0 11.119-9.101 20.22-20.22 20.22H1335.32c-11.12 0-20.222-9.099-20.222-20.22V754.265c0-11.123 9.1-20.222 20.222-20.222z"/><path class="fil4" d="M1328.29 768.29h232.463v69.739H1328.29z"/><path class="fil10" d="M1535.9 825.313h19.304v8.953H1535.9zM1513.54 825.313h19.304v8.953h-19.304zM1328.29 817.547h232.463v3.087H1328.29z"/><circle class="fil11" cx="1444.52" cy="1152.85" r="15.474"/><path class="fil4" d="M1339.56 1011.75h209.922c3.996 0 7.264 3.268 7.264 7.264v27.54c0 3.994-3.27 7.263-7.264 7.263H1339.56c-3.996 0-7.265-3.268-7.265-7.263v-27.54c0-3.996 3.27-7.264 7.265-7.264z"/><path style="fill:#212121;fill-rule:nonzero" d="M1315.1 911.163h258.84v46.494H1315.1z"/><circle class="fil11" cx="1444.52" cy="1187.4" r="8.897"/></g></svg>